0
SECTION
2
HEADER
9
$INSUNITS
70
4
9
$ACADVER
1
AC1014
9
$HANDSEED
5
FFFF
0
ENDSEC
0
SECTION
2
TABLES
0
TABLE
2
VPORT
5
8
100
AcDbSymbolTable
0
ENDTAB
0
TABLE
2
LTYPE
5
5
100
AcDbSymbolTable
0
LTYPE
5
14
100
AcDbSymbolTableRecord
100
AcDbLinetypeTableRecord
2
BYBLOCK
70
0
0
LTYPE
5
15
100
AcDbSymbolTableRecord
100
AcDbLinetypeTableRecord
2
BYLAYER
70
0
0
LTYPE
5
16
100
AcDbSymbolTableRecord
100
AcDbLinetypeTableRecord
2
DASHED
70
0
3
Dashed __ __ __ __ __ __ __ __ __ __ __ __ __ _
72
65
73
2
40
0.75
49
0.5
74
0
49
-0.25
74
0
0
ENDTAB
0
TABLE
2
LAYER
5
2
100
AcDbSymbolTable
70
2
0
LAYER
5
50
100
AcDbSymbolTableRecord
100
AcDbLayerTableRecord
2
0
70
0
62
7
6
CONTINUOUS
0
ENDTAB
0
TABLE
2
STYLE
5
3
100
AcDbSymbolTable
70
1
0
STYLE
5
11
100
AcDbSymbolTableRecord
100
AcDbTextStyleTableRecord
2
STANDARD
70
0
0
ENDTAB
0
TABLE
2
VIEW
5
6
100
AcDbSymbolTable
70
0
0
ENDTAB
0
TABLE
2
UCS
5
7
100
AcDbSymbolTable
70
0
0
ENDTAB
0
TABLE
2
APPID
5
9
100
AcDbSymbolTable
70
2
0
APPID
5
12
100
AcDbSymbolTableRecord
100
AcDbRegAppTableRecord
2
ACAD
70
0
0
ENDTAB
0
TABLE
2
DIMSTYLE
5
A
100
AcDbSymbolTable
70
1
0
ENDTAB
0
TABLE
2
BLOCK_RECORD
5
1
100
AcDbSymbolTable
70
1
0
BLOCK_RECORD
5
1F
100
AcDbSymbolTableRecord
100
AcDbBlockTableRecord
2
*MODEL_SPACE
0
BLOCK_RECORD
5
1B
100
AcDbSymbolTableRecord
100
AcDbBlockTableRecord
2
*PAPER_SPACE
0
ENDTAB
0
ENDSEC
0
SECTION
2
BLOCKS
0
BLOCK
5
20
100
AcDbEntity
100
AcDbBlockBegin
2
*MODEL_SPACE
0
ENDBLK
5
21
100
AcDbEntity
100
AcDbBlockEnd
0
BLOCK
5
1C
100
AcDbEntity
100
AcDbBlockBegin
2
*PAPER_SPACE
0
ENDBLK
5
1D
100
AcDbEntity
100
AcDbBlockEnd
0
ENDSEC
0
SECTION
2
ENTITIES
0
CIRCLE
5
100
100
AcDbEntity
8
0
100
AcDbCircle
10
-24.500000365078449
20
-41.000000610947602
30
0
40
1.4000000000000012
210
0
220
-0
230
1
0
CIRCLE
5
101
100
AcDbEntity
8
0
100
AcDbCircle
10
24.499999999999694
20
-41.000000610947602
30
0
40
1.4000000000000012
210
0
220
-0
230
1
0
CIRCLE
5
102
100
AcDbEntity
8
0
100
AcDbCircle
10
-25.770000000000131
20
12.119999389052369
30
0
40
0.15000000000000124
210
0
220
-0
230
1
0
LWPOLYLINE
5
103
100
AcDbEntity
8
0
100
AcDbPolyline
90
6
70
1
43
0.0
10
27.000000402331356
20
-20.000000298023224
10
-22.000000000000131
20
-20.000000298023224
10
-22.000000000000131
20
13.649999389052368
10
-27.000000000000135
20
13.64999938905237
10
-27.000000000000135
20
-53.000000789761536
10
27.000000402331352
20
-53.000000789761536
0
LWPOLYLINE
5
104
100
AcDbEntity
8
0
100
AcDbPolyline
90
10
70
1
43
0.0
10
13.690599999999623
20
-21.607599999999994
10
7.0357999999996235
20
-21.607599999999994
10
7.0357999999996235
20
-22.471199999999993
42
-0.4142135623730952
10
5.257799999999623
20
-24.249199999999995
10
-5.2578000000003779
20
-24.249199999999995
42
-0.4142135623730952
10
-7.0358000000003784
20
-22.471199999999993
10
-7.0358000000003784
20
-21.607599999999994
10
-13.69060000000038
20
-21.607599999999994
10
-13.69060000000038
20
-52.392399999999995
10
13.690599999999623
20
-52.392399999999995
0
LINE
5
105
100
AcDbEntity
8
0
100
AcDbLine
10
8.2774674291351928
20
-49.478779370954989
30
0
11
8.4047129188259131
21
-49.478779370954989
31
0
0
LINE
5
106
100
AcDbEntity
8
0
100
AcDbLine
10
8.4047129188259131
20
-49.478779370954989
30
0
11
8.4047129188259131
21
-49.607252309099295
31
0
0
LINE
5
107
100
AcDbEntity
8
0
100
AcDbLine
10
8.4047129188259131
20
-49.607252309099295
30
0
11
8.1117618878980728
21
-49.607252309099295
31
0
0
LINE
5
108
100
AcDbEntity
8
0
100
AcDbLine
10
8.1117618878980728
20
-49.607252309099295
30
0
11
8.1117618878980728
21
-49.344987489511695
31
0
0
SPLINE
5
109
100
AcDbEntity
8
0
100
AcDbSpline
70
0
71
3
72
32
73
28
74
0
42
0.000000001
43
0.0000000001
44
0.0000000001
40
0.1907640380675
40
0.1907640380675
40
0.1907640380675
40
0.1907640380675
40
0.25113549104522598
40
0.25113549104522598
40
0.25113549104522598
40
0.31150694402295298
40
0.31150694402295298
40
0.31150694402295298
40
0.37187839700067998
40
0.37187839700067998
40
0.37187839700067998
40
0.43224984997840699
40
0.43224984997840699
40
0.43224984997840699
40
0.49262130295613399
40
0.49262130295613399
40
0.49262130295613399
40
0.55299275593386088
40
0.55299275593386088
40
0.55299275593386088
40
0.58317848242272396
40
0.58317848242272396
40
0.58317848242272396
40
0.61336420891158805
40
0.61336420891158805
40
0.61336420891158805
40
0.673735661889315
40
0.673735661889315
40
0.673735661889315
40
0.673735661889315
10
8.1117618878980728
20
-49.344987489511695
30
0
10
8.1836446260043019
20
-49.296191178242495
30
0
10
8.234230916258273
20
-49.269486642925145
30
0
10
8.3035337813912697
20
-49.255902297215208
30
0
10
8.3728366465242683
20
-49.242317951505264
30
4.4408920985006262e-15
10
8.4608560865362961
20
-49.241853795402726
30
0
10
8.5304201034092113
20
-49.259496377170244
30
0
10
8.5999841202821266
20
-49.277138958937769
30
0
10
8.6510927140159311
20
-49.312888278575329
30
0
10
8.6865220962842304
20
-49.370909049375477
30
0
10
8.7219514785525316
20
-49.428929820175625
30
0
10
8.7417016493553277
20
-49.509222042138362
30
0
10
8.7376572948914148
20
-49.585750491704346
30
0
10
8.7336129404275002
20
-49.66227894127033
30
0
10
8.7057740606968768
20
-49.735043618439562
30
0
10
8.6622693303068026
20
-49.786621498916233
30
0
10
8.6187645999167284
20
-49.838199379392911
30
0
10
8.5595940188672035
20
-49.868590463177036
30
0
10
8.4759271798488776
20
-49.877684530581476
30
0
10
8.4340937603397101
20
-49.882231564283693
30
0
10
8.3861362763383482
20
-49.881454343890994
30
4.4408920985006262e-15
10
8.348593188706829
20
-49.879522628673804
30
0
10
8.3110501010753079
20
-49.877590913456615
30
0
10
8.2839214098136331
20
-49.874504703414942
30
0
10
8.2560782765226985
20
-49.86311072993945
30
0
10
8.2003920099408294
20
-49.840322782988451
30
0
10
8.1418479752419231
20
-49.784303782302189
30
0
10
8.1203540270733328
20
-49.707084783326096
30
0
0
LINE
5
110
100
AcDbEntity
8
0
100
AcDbLine
10
8.1203540270733328
20
-49.707084783326081
30
0
11
8.303652996145491
21
-49.67476197404779
31
0
0
SPLINE
5
111
100
AcDbEntity
8
0
100
AcDbSpline
70
0
71
3
72
17
73
13
74
0
42
0.000000001
43
0.0000000001
44
0.0000000001
40
0.72566915395117904
40
0.72566915395117904
40
0.72566915395117904
40
0.72566915395117904
40
0.78135160436127282
40
0.78135160436127282
40
0.78135160436127282
40
0.83703405477136805
40
0.83703405477136805
40
0.83703405477136805
40
0.89271650518146206
40
0.89271650518146206
40
0.89271650518146206
40
0.94839895559155696
40
0.94839895559155696
40
0.94839895559155696
40
0.94839895559155696
10
8.303652996145491
20
-49.67476197404779
30
0
10
8.3257352344848155
20
-49.743462271103496
30
0
10
8.414758492491913
20
-49.762072286912442
30
0
10
8.4705195386910255
20
-49.733154713708068
30
0
10
8.5262805848901415
20
-49.704237140503693
30
0
10
8.5487794192812725
20
-49.627791978285991
30
0
10
8.5474482837522778
20
-49.557806950506496
30
0
10
8.5461171482232832
20
-49.487821922726994
30
0
10
8.5209560427741629
20
-49.424297029385691
30
0
10
8.4739911549759643
20
-49.395362904030321
30
0
10
8.4270262671777623
20
-49.366428778674944
30
0
10
8.3582575970304838
20
-49.372085421305492
30
0
10
8.2774674291351928
20
-49.42108929363539
30
0
0
LINE
5
112
100
AcDbEntity
8
0
100
AcDbLine
10
8.2774674291351928
20
-49.421089293635383
30
0
11
8.2774674291351928
21
-49.478779370954989
31
0
0
LINE
5
113
100
AcDbEntity
8
0
100
AcDbLine
10
7.2803701353207533
20
-49.256202051367389
30
0
11
7.2803701353207533
21
-49.871153726625089
31
0
0
SPLINE
5
114
100
AcDbEntity
8
0
100
AcDbSpline
70
0
71
3
72
29
73
25
74
0
42
0.000000001
43
0.0000000001
44
0.0000000001
40
0
40
0
40
0
40
0
40
0.089036408345912518
40
0.089036408345912518
40
0.089036408345912518
40
0.17807281669182504
40
0.17807281669182504
40
0.17807281669182504
40
0.26710922503773704
40
0.26710922503773704
40
0.26710922503773704
40
0.35614563338365002
40
0.35614563338365002
40
0.35614563338365002
40
0.44518204172956205
40
0.44518204172956205
40
0.44518204172956205
40
0.53421845007547508
40
0.53421845007547508
40
0.53421845007547508
40
0.62325485842138706
40
0.62325485842138706
40
0.62325485842138706
40
0.71229126676730004
40
0.71229126676730004
40
0.71229126676730004
40
0.71229126676730004
10
7.2803701353207533
20
-49.871153726625089
30
0
10
7.2169343498117522
20
-49.871153726625089
30
0
10
7.1555090208799479
20
-49.869878057288489
30
0
10
7.090062778793742
20
-49.871153726625145
30
0
10
7.0246165367075362
20
-49.872429395961795
30
0
10
6.9551493814669296
20
-49.876256403971695
30
0
10
6.8952052316949306
20
-49.859580562289459
30
0
10
6.8352610819229334
20
-49.842904720607223
30
0
10
6.7848399376195427
20
-49.805726029232858
30
0
10
6.7548968825431484
20
-49.748550517390868
30
0
10
6.7249538274667531
20
-49.691375005548863
30
0
10
6.715488861617354
20
-49.614202673239227
30
0
10
6.7147015342370686
20
-49.548223547140331
30
0
10
6.7139142068567814
20
-49.482244421041422
30
0
10
6.7218045179456132
20
-49.427458501153261
30
0
10
6.7539327500816357
20
-49.378726434455174
30
0
10
6.7860609822176592
20
-49.329994367757095
30
0
10
6.8424271354008761
20
-49.287316154249091
30
0
10
6.9025360047408304
20
-49.268455071200734
30
0
10
6.9626448740807838
20
-49.249593988152363
30
0
10
7.0264964595774728
20
-49.254550035563625
30
0
10
7.0900693784844391
20
-49.256202051367389
30
0
10
7.1536422973914071
20
-49.257854067171145
30
0
10
7.2169365497086524
20
-49.256202051367389
30
0
10
7.2803701353207533
20
-49.256202051367389
30
0
0
LWPOLYLINE
5
115
100
AcDbEntity
8
0
100
AcDbPolyline
90
10
70
1
43
0.0
10
7.9976091817125123
20
-49.256202051367389
10
7.9976091817125123
20
-49.871153726625089
10
7.8200383054238536
20
-49.871153726625089
10
7.5876413982073529
20
-49.530332206006591
10
7.5876413982073529
20
-49.871153726625089
10
7.4088430734650821
20
-49.871153726625089
10
7.4088430734650821
20
-49.256202051367389
10
7.5876413982073529
20
-49.256202051367389
10
7.8188108569702433
20
-49.595386974047798
10
7.8188108569702433
20
-49.256202051367389
0
LWPOLYLINE
5
116
100
AcDbEntity
8
0
100
AcDbPolyline
90
10
70
1
43
0.0
10
10.686319133809622
20
-29.473012487878698
10
11.863625479059923
20
-30.904000000000007
10
12.941299999999622
20
-30.904000000000007
10
12.941299999999622
20
-48.175999999999995
10
-12.941300000000378
20
-48.175999999999995
10
-12.941300000000378
20
-30.904000000000007
10
-11.999468518897178
20
-30.904000000000007
10
-10.686319133810379
20
-29.596554328907033
10
-10.686319133810379
20
-27.785313797752806
10
10.686319133809622
20
-27.785313797752806
0
CIRCLE
5
117
100
AcDbEntity
8
0
100
AcDbCircle
10
-11.696700000000376
20
-23.821919591419793
30
0
40
1.6510000000000002
210
0
220
-0
230
1
0
CIRCLE
5
118
100
AcDbEntity
8
0
100
AcDbCircle
10
11.696699999999623
20
-23.821919591419793
30
0
40
1.6510000000000002
210
0
220
-0
230
1
0
CIRCLE
5
119
100
AcDbEntity
8
0
100
AcDbCircle
10
11.696699999999623
20
-50.288719591419799
30
0
40
1.6510000000000002
210
0
220
-0
230
1
0
CIRCLE
5
120
100
AcDbEntity
8
0
100
AcDbCircle
10
-11.696700000000376
20
-50.288719591419799
30
0
40
1.6510000000000002
210
0
220
-0
230
1
0
CIRCLE
5
121
100
AcDbEntity
8
0
100
AcDbCircle
10
-7.6200000000003874
20
-50.878630569969388
30
0
40
0.63500000000000001
210
0
220
-0
230
1
0
CIRCLE
5
122
100
AcDbEntity
8
0
100
AcDbCircle
10
-5.0800000000003873
20
-50.878630569969388
30
-4.4408920985006262e-15
40
0.63500000000000001
210
0
220
-0
230
1
0
CIRCLE
5
123
100
AcDbEntity
8
0
100
AcDbCircle
10
-2.5400000000003864
20
-50.878630569969388
30
0
40
0.63500000000000001
210
0
220
-0
230
1
0
CIRCLE
5
124
100
AcDbEntity
8
0
100
AcDbCircle
10
-3.7658754485558587e-13
20
-50.878630569969388
30
0
40
0.63500000000000001
210
0
220
-0
230
1
0
CIRCLE
5
125
100
AcDbEntity
8
0
100
AcDbCircle
10
2.5399999999996234
20
-50.878630569969388
30
0
40
0.63500000000000001
210
0
220
-0
230
1
0
CIRCLE
5
126
100
AcDbEntity
8
0
100
AcDbCircle
10
5.0799999999996324
20
-50.878630569969388
30
0
40
0.63500000000000001
210
0
220
-0
230
1
0
CIRCLE
5
127
100
AcDbEntity
8
0
100
AcDbCircle
10
7.6199999999996324
20
-50.878630569969388
30
0
40
0.63500000000000001
210
0
220
-0
230
1
0
ENDSEC
0
SECTION
2
OBJECTS
0
DICTIONARY
5
C
100
AcDbDictionary
3
ACAD_GROUP
350
D
3
ACAD_MLINESTYLE
350
17
0
DICTIONARY
5
D
100
AcDbDictionary
0
DICTIONARY
5
1A
330
C
100
AcDbDictionary
0
DICTIONARY
5
17
100
AcDbDictionary
0
ENDSEC
0
EOF
